{"accessors" : [{"bufferView" : 0, "byteOffset" : 0, "componentType" : 5123, "count" : 44016, "type" : "SCALAR", "max" : [7827], "min" : [0]}, {"bufferView" : 1, "byteOffset" : 0, "componentType" : 5126, "count" : 7828, "type" : "VEC3", "max" : [41.12310028076172, 65.97160339355469, 153.16610717773438], "min" : [-41.122798919677734, -111.53250122070312, 1], "name" : "POSITION"}, {"bufferView" : 1, "byteOffset" : 12, "componentType" : 5126, "count" : 7828, "type" : "VEC2", "max" : [0.9915000200271606, 0.9915000200271606], "min" : [0.00839999970048666, 0.0054000020027160645], "name" : "TEXCOORD_0"}, {"bufferView" : 1, "byteOffset" : 20, "componentType" : 5126, "count" : 7828, "type" : "VEC3", "max" : [0.9994338154792786, 0.9999919533729553, 1.000003457069397], "min" : [-0.9994338154792786, -0.9992287158966064, -0.983561635017395], "name" : "NORMAL"}], "asset" : {"generator" : "Aspose.3D 24.9.1", "version" : "2.0"}, "buffers" : [{"uri" : "data:application/octet-stream;base64,", "byteLength" : 338536}], "bufferViews" : [{"buffer" : 0, "byteOffset" : 0, "byteLength" : 88032, "target" : 34963}, {"buffer" : 0, "byteOffset" : 88036, "byteLength" : 250496, "byteStride" : 32, "target" : 34962}], "meshes" : [{"primitives" : [{"attributes" : {"POSITION" : 1, "TEXCOORD_0" : 2, "NORMAL" : 3}, "indices" : 0, "mode" : 4}], "name" : ""}], "nodes" : [{"mesh" : 0, "name" : "dolphin"}], "scene" : 0, "scenes" : [{"nodes" : [0]}]}